<svg id="Layer_1" data-name="Layer 1" xmlns="http://www.w3.org/2000/svg" viewBox="0 0 697.86 132.41"><defs><style>.cls-1{fill:#f97b00;}.cls-2{fill:#ff8b00;}.cls-3{fill:#fff;}</style></defs><rect class="cls-1" x="106.72" y="298.45" width="12.96" height="29.39" rx="1.36" transform="translate(345.36 226.52) rotate(135)"/><rect class="cls-2" x="51.28" y="9.6" width="9.96" height="5.64"/><rect class="cls-2" x="43.96" width="24.6" height="9.6"/><path class="cls-2" d="M126.78,247.74l-1.2,0v13.51l1.2,0a42.83,42.83,0,0,1,0,85.66l-1.2,0v13.51l1.2,0a56.34,56.34,0,0,0,0-112.68Z" transform="translate(-69.31 -228.01)"/><rect class="cls-2" x="110.56" y="249.95" width="5.28" height="12.48" rx="2.64" transform="translate(-128.95 -192.22) rotate(-14.26)"/><rect class="cls-2" x="98.2" y="254.99" width="5.28" height="12.48" rx="2.64" transform="translate(-178.21 -152.31) rotate(-27.4)"/><rect class="cls-2" x="87.4" y="262.67" width="5.28" height="12.48" rx="2.64" transform="translate(-233.09 -85.58) rotate(-45)"/><rect class="cls-2" x="78.85" y="273.14" width="5.28" height="12.48" rx="2.64" transform="translate(-267.4 -29.47) rotate(-57.61)"/><rect class="cls-2" x="74.83" y="285.02" width="5.28" height="12.48" rx="2.64" transform="translate(-293.16 57.1) rotate(-73.94)"/><rect class="cls-2" x="72.91" y="297.84" width="5.28" height="12.48" rx="2.64" transform="translate(-295.6 160.12) rotate(-91.61)"/><rect class="cls-2" x="74.83" y="310.84" width="5.28" height="12.48" rx="2.64" transform="translate(-266.07 266.1) rotate(-109.11)"/><rect class="cls-2" x="79.42" y="322.45" width="5.28" height="12.48" rx="2.64" transform="translate(-230.88 336.09) rotate(-120)"/><rect class="cls-2" x="87.68" y="333.03" width="5.28" height="12.48" rx="2.64" transform="translate(-167.48 407.46) rotate(-132.62)"/><rect class="cls-2" x="98.36" y="340.73" width="5.28" height="12.48" rx="2.64" transform="translate(-75.81 463.96) rotate(-146.46)"/><rect class="cls-2" x="110.56" y="345.23" width="5.28" height="12.48" rx="2.64" transform="translate(91.28 489.65) rotate(-169.52)"/><rect class="cls-2" x="126.83" y="277.95" width="12.96" height="53.41" rx="1.36" transform="translate(185.16 -233.05) rotate(45)"/><path class="cls-3" d="M228.87,320.45a1.88,1.88,0,0,1-1.34-.53,1.8,1.8,0,0,1-.58-1.39V302L209.1,269.07c0-.15-.1-.3-.15-.42a1.18,1.18,0,0,1-.08-.43,1.54,1.54,0,0,1,.5-1.11,1.62,1.62,0,0,1,1.2-.5h9.61a2.67,2.67,0,0,1,1.81.57,2.91,2.91,0,0,1,.81,1l11.07,19.85L245,268.22a3.93,3.93,0,0,1,.88-1,2.67,2.67,0,0,1,1.81-.57h9.62a1.48,1.48,0,0,1,1.15.5,1.58,1.58,0,0,1,.46,1.11,1.91,1.91,0,0,1,0,.43,2.93,2.93,0,0,1-.11.42L240.8,302v16.54a1.83,1.83,0,0,1-1.93,1.92Z" transform="translate(-69.31 -228.01)"/><path class="cls-3" d="M285,321.22a30.45,30.45,0,0,1-12.31-2.3,17.83,17.83,0,0,1-8.15-7,23.54,23.54,0,0,1-3.24-11.65q-.07-3.3-.07-6.62t.07-6.69a23.68,23.68,0,0,1,3.27-11.65,18.48,18.48,0,0,1,8.2-7.12,32.51,32.51,0,0,1,24.42,0,18.66,18.66,0,0,1,8.27,7.12A22.76,22.76,0,0,1,308.72,287q.15,3.39.15,6.69t-.15,6.62A23.54,23.54,0,0,1,305.49,312a17.91,17.91,0,0,1-8.16,7A30.37,30.37,0,0,1,285,321.22Zm0-11.07a9.2,9.2,0,0,0,6.65-2.47q2.58-2.46,2.73-7.84c.1-2.26.16-4.39.16-6.39s-.06-4.07-.16-6.23a13.94,13.94,0,0,0-1.34-5.88A7.73,7.73,0,0,0,289.8,278a10.22,10.22,0,0,0-4.77-1.07,10,10,0,0,0-4.7,1.07,7.9,7.9,0,0,0-3.3,3.35,13.47,13.47,0,0,0-1.39,5.88c-.05,2.16-.07,4.23-.07,6.23s0,4.13.07,6.39q.24,5.39,2.77,7.84A9.08,9.08,0,0,0,285,310.15Z" transform="translate(-69.31 -228.01)"/><path class="cls-3" d="M340.33,321.22A29.91,29.91,0,0,1,328.22,319a17.12,17.12,0,0,1-8-7q-2.85-4.72-2.85-12V268.53a1.85,1.85,0,0,1,.54-1.38,1.88,1.88,0,0,1,1.39-.54h9.92a1.83,1.83,0,0,1,1.92,1.92v31.31q0,5,2.43,7.5a10.42,10.42,0,0,0,13.54,0q2.42-2.5,2.42-7.5V268.53a1.78,1.78,0,0,1,.58-1.38,1.89,1.89,0,0,1,1.34-.54h10a1.93,1.93,0,0,1,1.35.54,1.8,1.8,0,0,1,.57,1.38v31.39q0,7.31-2.84,12a17.17,17.17,0,0,1-8,7A29.89,29.89,0,0,1,340.33,321.22Z" transform="translate(-69.31 -228.01)"/><path class="cls-3" d="M387.33,320.45a1.83,1.83,0,0,1-1.92-1.92V278.68H371.72a1.82,1.82,0,0,1-1.39-.57,1.92,1.92,0,0,1-.53-1.35v-8.23a1.85,1.85,0,0,1,.53-1.38,1.88,1.88,0,0,1,1.39-.54H413.1a1.88,1.88,0,0,1,1.39.54,1.85,1.85,0,0,1,.54,1.38v8.23a1.93,1.93,0,0,1-.54,1.35,1.82,1.82,0,0,1-1.39.57H399.41v39.85a1.83,1.83,0,0,1-1.92,1.92Z" transform="translate(-69.31 -228.01)"/><path class="cls-3" d="M424,320.45a1.87,1.87,0,0,1-1.39-.53,1.91,1.91,0,0,1-.53-1.39v-50a1.83,1.83,0,0,1,1.92-1.92h9.92a1.88,1.88,0,0,1,1.39.54,1.85,1.85,0,0,1,.54,1.38v18.54h19V268.53a1.85,1.85,0,0,1,.53-1.38,1.88,1.88,0,0,1,1.39-.54h9.92a1.83,1.83,0,0,1,1.92,1.92v50a1.91,1.91,0,0,1-.53,1.39,1.87,1.87,0,0,1-1.39.53h-9.92a1.82,1.82,0,0,1-1.92-1.92V299.38h-19v19.15a1.83,1.83,0,0,1-1.93,1.92Z" transform="translate(-69.31 -228.01)"/><path class="cls-3" d="M482.41,320.45a1.68,1.68,0,0,1-1.31-.5,1.77,1.77,0,0,1-.46-1.27v-50.3a1.77,1.77,0,0,1,.46-1.27,1.68,1.68,0,0,1,1.31-.5h4.08a1.58,1.58,0,0,1,1.23.5,1.77,1.77,0,0,1,.46,1.27v45.38H513.8a1.68,1.68,0,0,1,1.3.5,1.91,1.91,0,0,1,.46,1.35v3.07a1.77,1.77,0,0,1-.46,1.27,1.65,1.65,0,0,1-1.3.5Z" transform="translate(-69.31 -228.01)"/><path class="cls-3" d="M520.33,320.45a1.44,1.44,0,0,1-1.07-.46,1.47,1.47,0,0,1-.47-1.07,5.38,5.38,0,0,1,.08-.85L538,268.3a3.06,3.06,0,0,1,.84-1.23,2.43,2.43,0,0,1,1.62-.46h5.23a2.46,2.46,0,0,1,1.58.46,3,3,0,0,1,.88,1.23l19,49.77a2.81,2.81,0,0,1,.16.85,1.47,1.47,0,0,1-.47,1.07,1.44,1.44,0,0,1-1.07.46h-3.93a1.73,1.73,0,0,1-1.34-.46,3,3,0,0,1-.58-.84l-4.23-10.93H530.41l-4.23,10.93a1.78,1.78,0,0,1-.54.84,1.87,1.87,0,0,1-1.38.46Zm12.31-18.84h20.77L543,274.3Z" transform="translate(-69.31 -228.01)"/><path class="cls-3" d="M577.26,320.45A1.67,1.67,0,0,1,576,320a1.77,1.77,0,0,1-.46-1.27V268.45a1.88,1.88,0,0,1,.46-1.34,1.67,1.67,0,0,1,1.31-.5h3.53a2,2,0,0,1,1.39.42,2,2,0,0,1,.54.65l25.54,39.24V268.45a1.88,1.88,0,0,1,.46-1.34,1.67,1.67,0,0,1,1.31-.5h3.69a1.72,1.72,0,0,1,1.84,1.84v50.16a1.84,1.84,0,0,1-.5,1.31,1.63,1.63,0,0,1-1.27.53H610.1a1.65,1.65,0,0,1-1.27-.46c-.28-.31-.47-.51-.57-.61l-25.47-38.85v38.15a1.68,1.68,0,0,1-.5,1.27,1.78,1.78,0,0,1-1.34.5Z" transform="translate(-69.31 -228.01)"/><path class="cls-3" d="M648.26,321.22a23.73,23.73,0,0,1-11.73-2.61,17.06,17.06,0,0,1-7-7.31,25.92,25.92,0,0,1-2.62-10.92c0-2.11-.08-4.36-.08-6.77s0-4.72.08-6.93a25.92,25.92,0,0,1,2.62-10.92,17.11,17.11,0,0,1,7-7.31,23.73,23.73,0,0,1,11.73-2.61,27.14,27.14,0,0,1,9.3,1.46,19.41,19.41,0,0,1,6.66,3.92,17.37,17.37,0,0,1,4,5.5,17,17,0,0,1,1.53,6.27,1.32,1.32,0,0,1-.42,1.16,1.72,1.72,0,0,1-1.19.46H664a1.87,1.87,0,0,1-1.19-.39,2.26,2.26,0,0,1-.73-1.38c-.88-4-2.5-6.74-4.89-8.23a16.61,16.61,0,0,0-9-2.23q-6.15,0-9.77,3.5t-3.92,11.19q-.24,6.3,0,12.92.3,7.69,3.92,11.19t9.77,3.5a16.61,16.61,0,0,0,9-2.23c2.39-1.48,4-4.23,4.89-8.23a2.32,2.32,0,0,1,.73-1.38,1.87,1.87,0,0,1,1.19-.39h4.23a1.69,1.69,0,0,1,1.19.47,1.29,1.29,0,0,1,.42,1.15,17,17,0,0,1-1.53,6.27,17.26,17.26,0,0,1-4,5.5,19.41,19.41,0,0,1-6.66,3.92A26.9,26.9,0,0,1,648.26,321.22Z" transform="translate(-69.31 -228.01)"/><path class="cls-3" d="M681.87,320.45a1.67,1.67,0,0,1-1.31-.5,1.77,1.77,0,0,1-.46-1.27V268.45a1.88,1.88,0,0,1,.46-1.34,1.67,1.67,0,0,1,1.31-.5h31.77a1.68,1.68,0,0,1,1.31.5,1.93,1.93,0,0,1,.46,1.34v2.93a1.62,1.62,0,0,1-1.77,1.77H687.49V290H712a1.68,1.68,0,0,1,1.3.5,1.91,1.91,0,0,1,.47,1.35v2.84a1.78,1.78,0,0,1-.47,1.27,1.65,1.65,0,0,1-1.3.5H687.49v17.47h26.76a1.76,1.76,0,0,1,1.31.46,1.73,1.73,0,0,1,.46,1.3v3a1.77,1.77,0,0,1-.46,1.27,1.67,1.67,0,0,1-1.31.5Z" transform="translate(-69.31 -228.01)"/><path class="cls-3" d="M728.49,320.45a1.67,1.67,0,0,1-1.31-.5,1.77,1.77,0,0,1-.46-1.27V268.45a1.88,1.88,0,0,1,.46-1.34,1.67,1.67,0,0,1,1.31-.5h18.76q8.7,0,13.77,4.07t5.08,12.08a15.06,15.06,0,0,1-3,9.65,15.4,15.4,0,0,1-8,5.2L767,318.07a2,2,0,0,1,.23.85,1.43,1.43,0,0,1-.5,1.07,1.62,1.62,0,0,1-1.12.46h-3.69a2.45,2.45,0,0,1-1.92-.69,13,13,0,0,1-1.08-1.38l-11.15-19.54H734.25v19.84a1.68,1.68,0,0,1-.5,1.27,1.78,1.78,0,0,1-1.34.5Zm5.76-28.15H747q5.76,0,8.61-2.42t2.85-7.2c0-3.12-.94-5.51-2.81-7.15s-4.76-2.46-8.65-2.46h-12.7Z" transform="translate(-69.31 -228.01)"/><path class="cls-2" d="M161.86,255.4a38.09,38.09,0,0,1,19.34,19.16l9.05-9s-4.79-12.55-19.82-18.69Z" transform="translate(-69.31 -228.01)"/></svg>