<svg xmlns="http://www.w3.org/2000/svg" viewBox="0 0 120.94 132.41"><defs><style>.cls-1{fill:#f97b00;}.cls-2{fill:#ff8b00;}</style></defs><g id="katman_2" data-name="katman 2"><g id="Layer_1" data-name="Layer 1"><rect class="cls-1" x="37.41" y="70.44" width="12.96" height="29.39" rx="1.36" transform="translate(-47.35 55.97) rotate(-45)"/><rect class="cls-2" x="51.28" y="9.6" width="9.96" height="5.64"/><rect class="cls-2" x="43.96" width="24.6" height="9.6"/><path class="cls-2" d="M57.47,19.73h-1.2V33.24h1.2a42.83,42.83,0,0,1,0,85.66h-1.2v13.51h1.2a56.34,56.34,0,0,0,0-112.68Z"/><path class="cls-2" d="M42.33,22.14h0a2.65,2.65,0,0,1,3.21,1.91l1.77,7a2.64,2.64,0,0,1-1.9,3.21h0a2.63,2.63,0,0,1-3.21-1.91l-1.78-7A2.65,2.65,0,0,1,42.33,22.14Z"/><path class="cls-2" d="M28.66,27.67h0a2.64,2.64,0,0,1,3.56,1.13l3.32,6.39a2.65,2.65,0,0,1-1.13,3.56h0a2.64,2.64,0,0,1-3.56-1.13l-3.31-6.39A2.64,2.64,0,0,1,28.66,27.67Z"/><path class="cls-2" d="M16.31,36.49h0a2.65,2.65,0,0,1,3.74,0l5.09,5.09a2.64,2.64,0,0,1,0,3.73h0a2.64,2.64,0,0,1-3.73,0l-5.1-5.09A2.64,2.64,0,0,1,16.31,36.49Z"/><path class="cls-2" d="M6.9,48h0a2.64,2.64,0,0,1,3.64-.81l6.08,3.86a2.64,2.64,0,0,1,.82,3.64h0a2.65,2.65,0,0,1-3.65.81L7.71,51.68A2.65,2.65,0,0,1,6.9,48Z"/><path class="cls-2" d="M2.17,61.5h0a2.63,2.63,0,0,1,3.27-1.8l6.92,2A2.62,2.62,0,0,1,14.16,65h0a2.64,2.64,0,0,1-3.27,1.81L4,64.77A2.64,2.64,0,0,1,2.17,61.5Z"/><path class="cls-2" d="M0,76.23H0a2.64,2.64,0,0,1,2.57-2.71l7.19-.2a2.64,2.64,0,0,1,2.72,2.56h0a2.64,2.64,0,0,1-2.57,2.71l-7.2.21A2.64,2.64,0,0,1,0,76.23Z"/><path class="cls-2" d="M2.28,91.14h0a2.63,2.63,0,0,1,1.63-3.36l6.8-2.36a2.64,2.64,0,0,1,3.36,1.63h0a2.64,2.64,0,0,1-1.63,3.36l-6.8,2.36A2.65,2.65,0,0,1,2.28,91.14Z"/><path class="cls-2" d="M7.34,103.8h0a2.64,2.64,0,0,1,1-3.61l6.23-3.6a2.65,2.65,0,0,1,3.61,1h0a2.64,2.64,0,0,1-1,3.61L11,104.77A2.65,2.65,0,0,1,7.34,103.8Z"/><path class="cls-2" d="M16.43,115.49h0a2.64,2.64,0,0,1,.15-3.73l5.3-4.87a2.64,2.64,0,0,1,3.73.15h0a2.63,2.63,0,0,1-.16,3.73l-5.29,4.88A2.65,2.65,0,0,1,16.43,115.49Z"/><path class="cls-2" d="M28.27,124.16h0a2.63,2.63,0,0,1-.74-3.66l4-6a2.65,2.65,0,0,1,3.66-.75h0a2.63,2.63,0,0,1,.74,3.66l-4,6A2.65,2.65,0,0,1,28.27,124.16Z"/><path class="cls-2" d="M42.76,129.59h0a2.64,2.64,0,0,1-2.11-3.08L42,119.43A2.63,2.63,0,0,1,45,117.32h0a2.63,2.63,0,0,1,2.12,3.07l-1.31,7.08A2.64,2.64,0,0,1,42.76,129.59Z"/><rect class="cls-2" x="37.3" y="70.16" width="53.41" height="12.96" rx="1.36" transform="translate(-35.45 67.7) rotate(-45)"/><path class="cls-2" d="M92.55,27.39a38.07,38.07,0,0,1,19.34,19.16l9-9S116.15,25,101.12,18.86Z"/></g></g></svg>